<?xml version="1.0"?>
<svg xmlns="http://www.w3.org/2000/svg" xmlns:xlink="http://www.w3.org/1999/xlink" version="1.1" id="Capa_1" x="0px" y="0px" viewBox="0 0 512 512" style="enable-background:new 0 0 512 512;" xml:space="preserve" width="512px" height="512px" class=""><g><g>
	<g>
		<path d="M321.995,324.005c-5.522,0-10,4.477-10,10c0,30.877-25.12,55.999-55.999,55.999c-30.878,0-55.999-25.121-55.999-55.999    s25.12-55.999,55.999-55.999c5.522,0,10-4.477,10-10c0-5.523-4.477-10-10-10c-41.905,0-75.998,34.092-75.998,75.998    s34.093,75.998,75.998,75.998c41.905,0,75.998-34.092,75.998-75.998C331.995,328.482,327.517,324.005,321.995,324.005z" data-original="#000000" class="active-path" data-old_color="#EE7F7F" fill="#F27777"/>
	</g>
</g><g>
	<g>
		<path d="M255.996,300.005c-18.747,0-33.999,15.252-33.999,33.999s15.252,33.999,33.999,33.999    c18.748,0,33.999-15.252,33.999-33.999S274.744,300.005,255.996,300.005z M255.996,348.004c-7.72,0-14-6.28-14-14s6.28-14,14-14    c7.72,0,14,6.28,14,14S263.716,348.004,255.996,348.004z" data-original="#000000" class="active-path" data-old_color="#EE7F7F" fill="#F27777"/>
	</g>
</g><g>
	<g>
		<path d="M501.99,406.003c-5.522,0-10,4.477-10,10v31.999c0,24.261-19.737,43.999-43.999,43.999H64.001    c-24.261,0-43.999-19.737-43.999-43.999V300.005h123.034c-3.287,10.873-5.037,22.307-5.037,33.999    c0,65.063,52.934,117.997,117.997,117.997s117.997-52.934,117.997-117.997c0-11.722-1.73-23.15-4.986-33.999H491.99v28.499    c0,5.523,4.478,10,10,10s10-4.477,10-10V220.007c0-35.289-28.709-63.998-63.998-63.998h-67.386l-7.798-29.472    c-5.379-20.328-23.821-34.526-44.851-34.526H193.865c-21.028,0-39.472,14.198-44.851,34.526l-7.798,29.472h-11.831v-6.336    c0-16.356-13.307-29.663-29.662-29.663h-14.52c-16.356,0-29.662,13.307-29.662,29.663v6.913    c-31.302,4.155-55.538,31.003-55.538,63.421v227.994C0.004,483.291,28.713,512,64.002,512h383.99    c35.289,0,63.998-28.709,63.998-63.998v-31.999C511.99,410.48,507.513,406.003,501.99,406.003z M168.348,131.653    c3.061-11.566,13.554-19.643,25.517-19.643h134.093c11.964,0,22.456,8.078,25.517,19.643l6.444,24.355H161.904L168.348,131.653z     M75.54,149.672c0-5.329,4.335-9.664,9.663-9.664h14.521c5.328,0,9.663,4.335,9.663,9.664v6.336H75.54V149.672z M20.003,220.006    c0-24.26,19.738-43.998,43.999-43.998h1.539h53.846h29.527h223.994h75.084c24.261,0,43.999,19.737,43.999,43.999v59.999H360.95    c-12.325-23.972-32.763-43.51-58.647-54.564c-5.078-2.167-10.956,0.19-13.124,5.27c-2.169,5.079,0.189,10.955,5.269,13.124    c36.174,15.448,59.547,50.841,59.547,90.169c0,54.037-43.962,97.997-97.997,97.997S158,388.041,158,334.005    c0-38.303,22.528-73.324,57.395-89.219c5.025-2.291,7.241-8.222,4.95-13.248c-2.29-5.025-8.223-7.239-13.247-4.951    c-24.556,11.196-44.017,30.279-55.95,53.418H20.003V220.006z" data-original="#000000" class="active-path" data-old_color="#EE7F7F" fill="#F27777"/>
	</g>
</g><g>
	<g>
		<path d="M92.464,198.008c-16.542,0-29.999,13.458-29.999,29.999s13.458,29.999,29.999,29.999    c16.542,0,29.999-13.458,29.999-29.999S109.005,198.008,92.464,198.008z M92.464,238.007c-5.514,0-10-4.486-10-10s4.487-10,10-10    c5.514,0,10,4.486,10,10S97.978,238.007,92.464,238.007z" data-original="#000000" class="active-path" data-old_color="#EE7F7F" fill="#F27777"/>
	</g>
</g><g>
	<g>
		<path d="M434.841,218.007h-25.892c-5.522,0-10,4.477-10,10c0,5.523,4.478,10,10,10h25.892c5.522,0,10-4.477,10-10    C444.841,222.484,440.363,218.007,434.841,218.007z" data-original="#000000" class="active-path" data-old_color="#EE7F7F" fill="#F27777"/>
	</g>
</g><g>
	<g>
		<path d="M255.883,0c-5.522,0-10,4.477-10,10v48.11c0,5.523,4.478,10,10,10s10-4.477,10-10V10C265.882,4.477,261.404,0,255.883,0z" data-original="#000000" class="active-path" data-old_color="#EE7F7F" fill="#F27777"/>
	</g>
</g><g>
	<g>
		<path d="M351.741,42.321c-3.905-3.905-10.235-3.905-14.143,0l-19.63,19.63c-3.905,3.905-3.905,10.237,0,14.142    c1.954,1.953,4.513,2.929,7.072,2.929c2.559,0,5.118-0.977,7.071-2.929l19.63-19.629    C355.646,52.558,355.646,46.226,351.741,42.321z" data-original="#000000" class="active-path" data-old_color="#EE7F7F" fill="#F27777"/>
	</g>
</g><g>
	<g>
		<path d="M194.152,62.307l-19.63-19.63c-3.906-3.905-10.236-3.905-14.143,0c-3.905,3.905-3.905,10.237,0,14.142l19.632,19.629    c1.953,1.953,4.512,2.929,7.071,2.929s5.118-0.977,7.071-2.929C198.057,72.544,198.057,66.212,194.152,62.307z" data-original="#000000" class="active-path" data-old_color="#EE7F7F" fill="#F27777"/>
	</g>
</g><g>
	<g>
		<path d="M263.071,218.937c-1.87-1.86-4.439-2.93-7.069-2.93c-2.641,0-5.221,1.07-7.08,2.93c-1.86,1.86-2.931,4.44-2.931,7.07    s1.07,5.21,2.931,7.07c1.87,1.859,4.44,2.93,7.08,2.93c2.63,0,5.199-1.07,7.069-2.93c1.86-1.86,2.92-4.44,2.92-7.07    S264.931,220.797,263.071,218.937z" data-original="#000000" class="active-path" data-old_color="#EE7F7F" fill="#F27777"/>
	</g>
</g><g>
	<g>
		<path d="M509.056,366.434c-1.861-1.86-4.43-2.93-7.07-2.93c-2.63,0-5.21,1.07-7.069,2.93c-1.86,1.86-2.931,4.44-2.931,7.07    s1.07,5.21,2.931,7.07c1.859,1.86,4.439,2.93,7.069,2.93c2.641,0,5.21-1.07,7.07-2.93c1.87-1.86,2.94-4.44,2.94-7.07    S510.926,368.294,509.056,366.434z" data-original="#000000" class="active-path" data-old_color="#EE7F7F" fill="#F27777"/>
	</g>
</g></g> </svg>
